<svg width="47" height="27" viewBox="0 0 47 27" fill="none" xmlns="http://www.w3.org/2000/svg">
<path fill-rule="evenodd" clip-rule="evenodd" d="M0 1.5C0 0.671573 0.671573 0 1.5 0L45.5 3.8466e-06C46.3284 3.91903e-06 47 0.671577 47 1.5C47 2.32843 46.3284 3 45.5 3L1.5 3C0.671573 3 0 2.32843 0 1.5ZM0 13.5C0 12.6716 0.671573 12 1.5 12L45.5 12C46.3284 12 47 12.6716 47 13.5C47 14.3284 46.3284 15 45.5 15L1.5 15C0.671573 15 0 14.3284 0 13.5ZM1.5 24C0.671573 24 0 24.6716 0 25.5C0 26.3284 0.671573 27 1.5 27L45.5 27C46.3284 27 47 26.3284 47 25.5C47 24.6716 46.3284 24 45.5 24L1.5 24Z" fill="white"/>
</svg>
