<svg width="40" height="77" viewBox="0 0 40 77" fill="none" xmlns="http://www.w3.org/2000/svg">
<path d="M5.472 47V13.4H8.4L31.584 42.584H30.048V13.4H33.552V47H30.624L7.488 17.816H9.024V47H5.472Z" fill="white"/>
<path d="M23.072 47.288C21.184 47.288 19.408 46.872 17.744 46.04C16.112 45.208 14.8 44.024 13.808 42.488L15.872 40.088C16.8 41.432 17.872 42.456 19.088 43.16C20.304 43.864 21.648 44.216 23.12 44.216C27.28 44.216 29.36 41.752 29.36 36.824V16.472H17.072V13.4H32.864V36.68C32.864 40.232 32.032 42.888 30.368 44.648C28.736 46.408 26.304 47.288 23.072 47.288Z" fill="white"/>
<path d="M3.096 65L18.456 31.4H21.96L37.32 65H33.576L19.464 33.464H20.904L6.792 65H3.096ZM9.144 56.024L10.2 53.144H29.736L30.792 56.024H9.144Z" fill="white"/>
</svg>
